HIERARCHY
ROOT Hips
{
	OFFSET 0.00000 0.00000 0.00000
	CHANNELS 6 Xposition Yposition Zposition Yrotation Zrotation Xrotation 
	JOINT Lumbar
	{
		OFFSET 0 0 0
		CHANNELS 3 Zrotation Xrotation Yrotation
		JOINT Neck
		{
			OFFSET 0.00 0.2701 0.00
			CHANNELS 3 Zrotation Xrotation Yrotation
			End Site
			{
				OFFSET 0.00 0.1379 0.00
			}
		}
		JOINT RightShoulder
		{
			OFFSET 0.0119 0.2289 0.1181
			CHANNELS 3 Zrotation Xrotation Yrotation
			JOINT RightElbow
			{
				OFFSET 0.00 -0.1475 0.00
				CHANNELS 2 Zrotation Yrotation
				JOINT RightWrist
				{
					OFFSET 0.00 -0.1605 0.00
					CHANNELS 2 Zrotation Xrotation
					End Site
					{
						OFFSET 0.0040 -0.1068 0.0006
					}
				}
			}
		}
		JOINT LeftShoulder
		{
			OFFSET 0.0119 0.2289 -0.1181
			CHANNELS 3 Zrotation Xrotation Yrotation
			JOINT LeftElbow
			{
				OFFSET 0.00 -0.1475 0.00
				CHANNELS 2 Zrotation Yrotation
				JOINT LeftWrist
				{
					OFFSET 0.00 -0.1605 0.00
					CHANNELS 2 Zrotation Xrotation
					End Site
					{
						OFFSET 0.0040 -0.1068 -0.0006
					}
				}
			}
		}
	}
	JOINT RightHip
	{
		OFFSET 0.0316 -0.0424 0.0458
		CHANNELS 3 Zrotation Xrotation Yrotation
		JOINT RightKnee
		{
			OFFSET 0.00 -0.2438 0.00
			CHANNELS 1 Zrotation
			JOINT RightAnkle
			{
				OFFSET 0.00 -0.2449 0.00
				CHANNELS 3 Zrotation Xrotation Yrotation
				End Site
				{
					OFFSET 0.1237 -0.0542 0.0051
				}
			}
		}
	}
	JOINT LeftHip
	{
		OFFSET 0.0316 -0.0424 -0.0458
		CHANNELS 3 Zrotation Xrotation Yrotation
		JOINT LeftKnee
		{
			OFFSET 0.00 -0.2438 0.00
			CHANNELS 1 Zrotation
			JOINT LeftAnkle
			{
				OFFSET 0.00 -0.2449 0.00
				CHANNELS 3 Zrotation Xrotation Yrotation
				End Site
				{
					OFFSET 0.1237 -0.0542 -0.0051
				}
			}
		}
	}
}
MOTION
Frames: 33
Frame Time: 0.02
0.89776 -0.01159 -0.41309 -777.44347 -34.04372 -3.17924 42.87243 -2.30072 -5.42847 -6.85956 3.52352 -0.83079 12.14608 -37.36911 4.42048 104.73753 108.49795 -32.51945 -7.1942 -13.68643 17.87405 -9.00819 121.44964 -97.86172 -22.36372 6.6111 49.9673 -11.76415 -6.7261 -39.3693 -7.70053 -2.25742 -1.8314 33.9869 -6.62457 11.72403 -14.20333 -7.20233 3.15572 2.3062
0.90138 -0.01184 -0.40896 -777.87473 -34.23797 -3.138 42.91383 -2.36932 -5.44896 -6.94163 3.51081 -0.83079 12.26795 -37.32266 4.42503 105.05641 104.24665 -31.77311 -6.64362 -13.69761 17.59441 -9.37188 121.52094 -95.48712 -21.06732 6.21301 51.06582 -11.3762 -7.41031 -36.28493 -7.80291 -2.42709 -1.92844 32.91496 -7.01533 10.66055 -12.85551 -7.29456 3.304 2.39329
0.9049 -0.01223 -0.40451 -778.29469 -34.44543 -3.00178 43.00457 -2.47404 -5.39056 -7.05716 3.48498 -0.83079 12.38667 -37.31102 4.44026 105.46421 98.00194 -30.38288 -5.84218 -13.79277 17.37367 -9.8058 121.61566 -91.8552 -19.20321 5.59993 52.06663 -11.04404 -7.8322 -33.02878 -7.94957 -2.64027 -2.05117 31.78885 -7.5028 9.30971 -11.4058 -7.33823 3.48547 2.4945
0.90847 -0.01257 -0.40017 -778.71363 -34.65174 -2.90482 43.08037 -2.56336 -5.3715 -7.15618 3.46557 -0.83079 12.51391 -37.29312 4.43923 105.84562 92.70135 -29.28758 -5.14225 -13.85713 17.11454 -10.19485 121.70507 -88.83512 -17.63087 5.0714 53.12081 -10.69378 -8.34491 -29.90783 -8.07156 -2.83249 -2.1615 30.68987 -7.94318 8.16911 -10.00209 -7.27643 3.65763 2.58057
0.91203 -0.01285 -0.39598 -779.16078 -34.84048 -2.82262 43.12627 -2.6489 -5.33433 -7.26057 3.44403 -0.83079 12.61419 -37.23433 4.4856 106.16837 87.24769 -28.20484 -4.48979 -13.89148 16.89471 -10.63968 121.77441 -85.64614 -15.91932 4.59552 54.13541 -10.31109 -8.97011 -26.5042 -8.21913 -3.03015 -2.27542 29.58176 -8.39913 6.6841 -8.59331 -7.73072 3.82623 2.71098
0.91558 -0.01329 -0.3914 -779.54361 -35.06658 -2.6883 43.24488 -2.75025 -5.3186 -7.36162 3.42423 -0.83079 12.76701 -37.27118 4.43608 106.63389 81.6663 -26.93755 -3.68756 -14.00777 16.61272 -10.98562 121.88914 -82.52076 -14.36239 3.9646 55.20436 -10.01035 -9.30404 -23.66771 -8.32238 -3.22658 -2.38775 28.47942 -8.84323 5.85735 -7.17817 -7.12649 3.98415 2.74307
0.91912 -0.01413 -0.38596 -779.7776 -35.40811 -2.42742 43.56068 -2.89175 -5.3665 -7.4473 3.40859 -0.83079 13.08682 -37.53798 4.11911 107.47617 75.8372 -25.28136 -2.44868 -14.33144 16.11997 -11.02778 122.13645 -79.73961 -13.36162 2.90011 56.51518 -9.91537 -8.86465 -22.39981 -8.28145 -3.40984 -2.48964 27.40418 -9.24894 6.828 -5.71089 -3.37194 4.34848 2.59069
0.92264 -0.01513 -0.38014 -779.94321 -35.78374 -2.11903 43.94655 -3.04668 -5.44136 -7.52833 3.39606 -0.83079 13.45534 -37.90354 3.70549 108.45831 70.00559 -23.46607 -1.08152 -14.73456 15.56792 -10.96971 122.42625 -77.08845 -12.53717 1.69646 57.87212 -9.90152 -8.14646 -21.72097 -8.19547 -3.59009 -2.58893 26.33692 -9.63554 8.47627 -4.2521 1.40105 4.67068 2.32973
0.92617 -0.01606 -0.37443 -780.12208 -36.1333 -1.83585 44.29422 -3.19231 -5.51439 -7.60994 3.38433 -0.83079 13.78781 -38.24149 3.33613 109.37351 64.43032 -21.74254 0.16979 -15.09968 15.06077 -10.96667 122.68765 -74.46852 -11.63784 0.5956 59.16511 -9.85633 -7.58033 -20.80422 -8.13609 -3.77112 -2.68922 25.26689 -10.01954 9.88898 -2.82836 5.55148 4.83269 2.0493
0.9297 -0.01698 -0.36897 -780.37251 -36.52773 -1.53229 44.66913 -3.35375 -5.54222 -7.69837 3.36191 -0.83079 14.17972 -38.51114 2.96527 110.30583 57.7422 -19.9099 1.66607 -15.47441 14.48133 -10.92808 122.98739 -71.42903 -10.69696 -0.67533 60.63777 -9.79335 -6.90435 -19.75659 -8.05211 -3.95633 -2.79123 24.1907 -10.45623 11.03471 -1.23616 10.37988 5.69005 2.02805
0.93322 -0.01795 -0.36288 -780.46187 -36.83692 -1.26333 45.00496 -3.48364 -5.66963 -7.77207 3.36376 -0.83079 14.45846 -38.94183 2.575 111.23484 53.35538 -18.28128 2.68776 -15.84856 14.03567 -10.93634 123.21815 -69.30396 -9.89148 -1.62775 61.74626 -9.78143 -6.38631 -19.12186 -8.00858 -4.13133 -2.88863 23.13082 -10.77527 12.84013 0.00106 14.03492 5.16762 1.48092
0.93669 -0.0191 -0.35525 -780.08859 -36.89936 -1.08313 45.20073 -3.53464 -6.08308 -7.79736 3.42224 -0.83079 14.42188 -39.82929 2.15134 112.11711 55.69922 -17.20267 2.29248 -16.18659 13.9913 -11.1189 123.23848 -69.7363 -9.42334 -1.61699 61.85656 -9.92996 -6.4457 -19.50319 -8.08205 -4.28037 -2.97415 22.10945 -10.7916 16.8438 0.26027 14.22054 0.1443 -0.84722
0.94015 -0.02028 -0.34698 -779.56234 -36.87506 -0.94307 45.35702 -3.55121 -6.59285 -7.80946 3.50667 -0.83079 14.26871 -40.86857 1.71305 112.99105 60.30399 -16.34704 1.42699 -16.52344 14.0803 -11.34776 123.18964 -71.07922 -9.08743 -1.28795 61.59535 -10.11988 -6.66307 -20.27715 -8.19805 -4.41858 -3.05482 21.10724 -10.68639 21.40039 0.15829 13.18611 -6.15199 -3.64374
0.9436 -0.02141 -0.33894 -779.12857 -36.89268 -0.79752 45.5413 -3.57566 -7.04745 -7.83328 3.5859 -0.83079 14.16209 -41.81423 1.28243 113.871 63.63102 -15.42779 0.82595 -16.87054 14.09634 -11.54182 123.17852 -71.9688 -8.68895 -1.13752 61.49306 -10.26431 -6.75929 -20.859 -8.29875 -4.56075 -3.13762 20.09718 -10.62496 25.33406 0.22578 12.69711 -11.38477 -5.98111
0.94709 -0.02272 -0.33114 -778.59448 -36.90198 -0.59742 45.68676 -3.63293 -7.55139 -7.83287 3.63836 -0.83079 14.08155 -42.86683 0.84014 114.7479 67.9925 -14.34655 0.01909 -17.18037 14.16169 -11.79106 123.14209 -73.02686 -8.30491 -0.85331 61.43601 -10.52258 -7.04682 -21.5183 -8.38314 -4.70758 -3.22119 19.07605 -10.61152 30.81 0.28576 12.28217 -18.59847 -9.32429
0.95051 -0.02364 -0.32268 -778.23516 -36.9063 -0.51984 45.90135 -3.61408 -7.97468 -7.87971 3.75148 -0.83079 13.92185 -43.73208 0.42493 115.62556 70.76255 -13.65381 -0.47727 -17.56536 14.15778 -11.93697 123.14175 -73.95135 -7.92222 -0.76449 61.19362 -10.55459 -6.98603 -22.10275 -8.50939 -4.84133 -3.30137 18.09207 -10.46923 33.25908 0.25664 11.40948 -22.07341 -10.72972
0.95384 -0.02349 -0.31252 -778.38563 -36.92824 -0.78164 46.32755 -3.38806 -8.15491 -8.0613 4.03608 -0.83079 13.54288 -44.03743 0.04603 116.52112 68.36388 -14.01797 0.03893 -18.16628 13.92177 -11.79316 123.25398 -74.26272 -7.49275 -1.34294 60.54937 -9.93363 -5.8498 -22.37447 -8.76502 -4.94862 -3.37888 17.12486 -10.00283 26.66426 0.23115 9.57156 -14.16733 -6.25547
0.95709 -0.02294 -0.30171 -778.71953 -36.9458 -1.16336 46.82158 -3.08757 -8.24972 -8.29053 4.37878 -0.83079 13.09404 -44.14993 -0.29672 117.41401 64.32669 -14.76049 0.8754 -18.84012 13.61354 -11.54342 123.405 -74.41154 -7.06328 -2.11948 59.72754 -9.08682 -4.37322 -22.5562 -9.05714 -5.04177 -3.45208 16.21039 -9.41059 17.09957 0.09741 7.31136 -2.58625 0.11257
0.96034 -0.02256 -0.29121 -778.97652 -36.95887 -1.4835 47.27781 -2.82459 -8.3817 -8.49756 4.68821 -0.83079 12.69539 -44.35323 -0.62808 118.29895 61.18534 -15.30353 1.53856 -19.47592 13.34368 -11.33757 123.54124 -74.64866 -6.64405 -2.77127 58.97441 -8.35444 -3.10278 -22.78276 -9.31679 -5.13686 -3.52366 15.32381 -8.87487 9.25723 -0.09133 5.23727 6.81416 5.337
0.96375 -0.02223 -0.28061 -779.20092 -36.99743 -1.83571 47.76496 -2.54485 -8.52492 -8.70728 5.02794 -0.83079 12.21257 -44.54679 -1.07777 119.22419 57.48616 -15.96468 2.30367 -20.13588 13.05386 -11.14936 123.66494 -74.85757 -6.18366 -3.5566 58.2594 -7.57246 -1.61948 -23.00692 -9.6445 -5.25068 -3.6103 14.21531 -8.33805 -0.12232 0.15112 3.13966 18.29503 11.72201
0.96681 -0.0217 -0.27008 -779.53875 -36.98157 -2.14809 48.20083 -2.28292 -8.62209 -8.92181 5.31754 -0.83079 11.89288 -44.71504 -1.27182 120.06267 54.52819 -16.47407 2.93727 -20.7585 12.78818 -10.90099 123.82253 -75.07365 -5.81059 -4.11751 57.42718 -6.84124 -0.49781 -23.20934 -9.83916 -5.32206 -3.6645 13.5859 -7.77483 -7.0333 -0.53044 1.01415 26.37022 16.16769
0.96895 -0.02064 -0.25977 -780.14655 -36.82888 -2.32941 48.50819 -2.08748 -8.62138 -9.14738 5.45855 -0.83079 12.01697 -44.83956 -0.77155 120.68153 54.03356 -16.4113 3.1415 -21.29771 12.59344 -10.49219 124.0841 -75.35693 -5.65097 -3.98685 56.32032 -6.29153 -0.4482 -23.37183 -9.65217 -5.28138 -3.63101 14.2276 -7.17448 -6.2265 -3.69076 -1.14546 23.81649 14.60538
0.97073 -0.0194 -0.24956 -780.86309 -36.61966 -2.46465 48.75608 -1.913 -8.57502 -9.37452 5.54625 -0.83079 12.31298 -44.9475 -0.01476 121.20962 54.33261 -16.19468 3.20152 -21.79023 12.42688 -10.03001 124.3749 -75.64884 -5.58479 -3.62763 55.10239 -5.80327 -0.7751 -23.5135 -9.33089 -5.19811 -3.56485 15.35661 -6.55234 -2.86859 -7.78138 -3.30075 17.7748 11.06316
0.97265 -0.01828 -0.23938 -781.52901 -36.42866 -2.61548 49.01214 -1.72955 -8.54383 -9.59478 5.65557 -0.83079 12.54602 -45.07721 0.62667 121.76665 54.23965 -16.08485 3.32309 -22.27895 12.25614 -9.60533 124.63984 -75.92489 -5.49196 -3.39229 53.93359 -5.29557 -0.93561 -23.66434 -9.07425 -5.13343 -3.51318 16.28824 -5.93656 -0.79567 -11.47805 -5.41307 13.55104 8.55478
0.97468 -0.01701 -0.22889 -782.20452 -36.26911 -2.79356 49.35085 -1.54064 -8.53409 -9.84248 5.77788 -0.83079 12.71121 -45.14395 1.26471 122.3755 54.20072 -15.82551 3.47599 -22.87408 12.04843 -9.12124 124.95989 -76.23877 -5.32811 -3.08668 52.76428 -4.74345 -1.06544 -23.81496 -8.8033 -5.07195 -3.46306 17.1209 -5.32817 1.70541 -15.06812 -7.73278 8.47557 5.54865
0.9764 -0.016 -0.21908 -782.88574 -36.03056 -2.90183 49.50154 -1.36967 -8.46892 -10.03307 5.8598 -0.83079 13.06118 -45.33569 1.96963 122.85494 54.28696 -15.84511 3.52074 -23.23775 11.923 -8.74942 125.17072 -76.48728 -5.33981 -2.86121 51.57173 -4.30232 -1.35172 -23.96041 -8.53021 -4.99331 -3.4018 18.27367 -4.70475 3.95782 -19.08575 -9.61112 4.29336 3.08141
0.97741 -0.01573 -0.21109 -783.53743 -35.58964 -2.8322 49.15522 -1.23856 -8.2705 -10.06287 5.84177 -0.83079 13.86714 -45.918 2.80337 122.99902 54.28632 -16.59055 3.34101 -22.95469 12.03943 -8.70284 125.08075 -76.47053 -5.76453 -2.99533 50.34722 -4.14604 -1.98979 -24.11193 -8.28031 -4.88244 -3.31959 20.20081 -4.01194 4.92642 -24.1712 -10.29055 3.455 2.60405
0.97813 -0.01571 -0.20381 -784.19437 -35.07135 -2.6925 48.62048 -1.1261 -8.01653 -10.0354 5.78476 -0.83079 14.85695 -46.62001 3.69523 123.01612 54.43515 -17.63337 3.0494 -22.44382 12.23499 -8.77136 124.87855 -76.40249 -6.3703 -3.20337 49.10399 -4.10191 -2.7713 -24.25659 -8.03347 -4.75498 -3.227 22.43141 -3.31106 5.5678 -29.62975 -10.52013 3.61282 2.72443
0.97897 -0.01557 -0.19623 -784.85944 -34.58653 -2.58206 48.166 -1.00842 -7.78294 -10.03573 5.74648 -0.83079 15.76945 -47.24093 4.55428 123.09144 54.68193 -18.59447 2.78091 -22.04897 12.37932 -8.78614 124.72191 -76.4146 -6.92714 -3.32037 47.86588 -4.01165 -3.48163 -24.39466 -7.7874 -4.63208 -3.13799 24.51626 -2.63703 6.35463 -34.84554 -10.94106 3.28097 2.55044
0.97984 -0.01549 -0.18853 -785.48132 -34.10469 -2.48147 47.73006 -0.87742 -7.56886 -10.02875 5.70275 -0.83079 16.65674 -47.97341 5.44454 123.16117 54.26175 -19.33321 2.62129 -21.59849 12.58506 -8.80451 124.58788 -76.19254 -7.35267 -3.66494 46.63457 -3.90217 -4.23215 -24.57259 -7.52722 -4.52021 -3.05261 26.65052 -1.86658 7.23722 -40.41556 -11.41747 2.9872 2.40526
0.98059 -0.01533 -0.18126 -786.19635 -33.60177 -2.34372 47.21416 -0.77867 -7.30078 -10.02325 5.66096 -0.83079 17.64402 -48.50274 6.28623 123.21391 55.24774 -20.59722 2.21438 -21.21201 12.68635 -8.84412 124.38148 -76.43892 -8.08571 -3.56496 45.39052 -3.85962 -4.9257 -24.66658 -7.29929 -4.38205 -2.95768 28.74846 -1.29247 7.81617 -45.30838 -11.67141 2.89387 2.36668
0.98106 -0.01487 -0.17497 -787.13764 -33.03633 -2.12583 46.50087 -0.76114 -6.90425 -10.03685 5.64174 -0.83079 18.80933 -48.43757 6.92651 123.24774 60.14596 -23.328 1.11674 -21.04441 12.43382 -8.90789 123.98749 -78.05434 -9.69089 -2.14243 44.07925 -3.96538 -5.44604 -24.52706 -7.15704 -4.17505 -2.83875 30.66163 -1.28802 7.57187 -48.36909 -11.42108 3.13732 2.49085
0.98143 -0.01432 -0.1691 -788.17741 -32.45706 -1.8724 45.71816 -0.77576 -6.45426 -10.05389 5.62486 -0.83079 20.07752 -48.16484 7.52411 123.26947 66.43381 -26.56045 -0.21817 -20.95198 12.07989 -8.98995 123.52729 -80.1326 -11.58684 -0.28494 42.76335 -4.13593 -5.89833 -24.30405 -7.04836 -3.94247 -2.7108 32.52708 -1.47724 7.03136 -50.70576 -10.9626 3.56022 2.70874
